<?xml version="1.0" standalone="no"?>
<!DOCTYPE svg PUBLIC "-//W3C//DTD SVG 20010904//EN"
 "http://www.w3.org/TR/2001/REC-SVG-20010904/DTD/svg10.dtd">
<svg version="1.0" xmlns="http://www.w3.org/2000/svg"
 width="413.000000pt" height="450.000000pt" viewBox="0 0 413.000000 450.000000"
 preserveAspectRatio="xMidYMid meet">
<metadata>
Created by potrace 1.16, written by Peter Selinger 2001-2019
</metadata>
<g transform="translate(0.000000,450.000000) scale(0.100000,-0.100000)"
fill="#000000" stroke="none">
<path d="M1356 3450 c-66 -26 -112 -72 -136 -137 -20 -53 -20 -79 -20 -1179
l0 -1124 28 17 c15 10 153 110 307 223 348 256 550 400 560 400 10 0 214 -145
585 -418 l305 -224 3 1118 c3 1043 2 1123 -15 1178 -21 74 -62 117 -138 145
-55 21 -69 21 -743 21 -653 -1 -689 -2 -736 -20z m1441 -71 c38 -14 83 -57 99
-96 12 -27 14 -212 14 -1073 0 -572 -2 -1040 -5 -1040 -3 0 -184 131 -402 292
-218 160 -402 291 -408 291 -6 0 -190 -131 -408 -291 -218 -161 -399 -292
-402 -292 -11 0 -5 2078 6 2107 14 37 57 82 94 99 39 17 1367 20 1412 3z"/>
</g>
</svg>
