<?xml version="1.0" standalone="no"?>
<!DOCTYPE svg PUBLIC "-//W3C//DTD SVG 20010904//EN"
 "http://www.w3.org/TR/2001/REC-SVG-20010904/DTD/svg10.dtd">
<svg version="1.0" xmlns="http://www.w3.org/2000/svg"
 width="413.000000pt" height="450.000000pt" viewBox="0 0 413.000000 450.000000"
 preserveAspectRatio="xMidYMid meet">
<metadata>
Created by potrace 1.16, written by Peter Selinger 2001-2019
</metadata>
<g transform="translate(0.000000,450.000000) scale(0.100000,-0.100000)"
fill="#000000" stroke="none">
<path d="M1356 3450 c-66 -26 -112 -72 -136 -137 -20 -53 -20 -79 -20 -1179
l0 -1124 28 17 c15 10 153 110 307 223 348 256 550 400 560 400 10 0 214 -145
585 -418 l305 -224 3 1118 c3 1043 2 1123 -15 1178 -21 74 -62 117 -138 145
-55 21 -69 21 -743 21 -653 -1 -689 -2 -736 -20z"/>
</g>
</svg>
